HIERARCHY
ROOT Hips
{
	OFFSET 0.00000 0.00000 0.00000
	CHANNELS 6 Xposition Yposition Zposition Zrotation Yrotation Xrotation 
	JOINT LHipJoint
	{
		OFFSET 0 0 0
		CHANNELS 3 Zrotation Yrotation Xrotation
		JOINT LeftUpLeg
		{
			OFFSET 1.54859 -1.61379 0.86856
			CHANNELS 3 Zrotation Yrotation Xrotation
			JOINT LeftLeg
			{
				OFFSET 2.25087 -6.18423 0.00000
				CHANNELS 3 Zrotation Yrotation Xrotation
				JOINT LeftFoot
				{
					OFFSET 2.40328 -6.60297 0.00000
					CHANNELS 3 Zrotation Yrotation Xrotation
					JOINT LeftToeBase
					{
						OFFSET 0.17435 -0.47901 2.02453
						CHANNELS 3 Zrotation Yrotation Xrotation
						End Site
						{
							OFFSET 0.00000 -0.00000 1.04844
						}
					}
				}
			}
		}
	}
	JOINT RHipJoint
	{
		OFFSET 0 0 0
		CHANNELS 3 Zrotation Yrotation Xrotation
		JOINT RightUpLeg
		{
			OFFSET -1.54669 -1.61379 0.86856
			CHANNELS 3 Zrotation Yrotation Xrotation
			JOINT RightLeg
			{
				OFFSET -2.28132 -6.26789 0.00000
				CHANNELS 3 Zrotation Yrotation Xrotation
				JOINT RightFoot
				{
					OFFSET -2.51636 -6.91365 0.00000
					CHANNELS 3 Zrotation Yrotation Xrotation
					JOINT RightToeBase
					{
						OFFSET -0.15124 -0.41552 2.21090
						CHANNELS 3 Zrotation Yrotation Xrotation
						End Site
						{
							OFFSET -0.00000 -0.00000 1.13399
						}
					}
				}
			}
		}
	}
	JOINT LowerBack
	{
		OFFSET 0 0 0
		CHANNELS 3 Zrotation Yrotation Xrotation
		JOINT Spine
		{
			OFFSET -0.04287 2.26161 -0.25690
			CHANNELS 3 Zrotation Yrotation Xrotation
			JOINT Spine1
			{
				OFFSET 0.02248 2.28395 -0.10140
				CHANNELS 3 Zrotation Yrotation Xrotation
				JOINT Neck
				{
					OFFSET 0 0 0
					CHANNELS 3 Zrotation Yrotation Xrotation
					JOINT Neck1
					{
						OFFSET -0.11644 1.38496 0.11345
						CHANNELS 3 Zrotation Yrotation Xrotation
						JOINT Head
						{
							OFFSET 0.29383 1.36600 0.06642
							CHANNELS 3 Zrotation Yrotation Xrotation
							End Site
							{
								OFFSET 0.11075 1.41395 -0.00294
							}
						}
					}
				}
				JOINT LeftShoulder
				{
					OFFSET 0 0 0
					CHANNELS 3 Zrotation Yrotation Xrotation
					JOINT LeftArm
					{
						OFFSET 3.51628 0.59542 -0.30346
						CHANNELS 3 Zrotation Yrotation Xrotation
						JOINT LeftForeArm
						{
							OFFSET 4.76405 -0.00000 0.00000
							CHANNELS 3 Zrotation Yrotation Xrotation
							JOINT LeftHand
							{
								OFFSET 3.13759 -0.00000 -0.00000
								CHANNELS 3 Zrotation Yrotation Xrotation
								JOINT LeftFingerBase
								{
									OFFSET 0 0 0
									CHANNELS 3 Zrotation Yrotation Xrotation
									JOINT LeftHandIndex1
									{
										OFFSET 0.73226 -0.00000 -0.00000
										CHANNELS 3 Zrotation Yrotation Xrotation
										End Site
										{
											OFFSET 0.59037 -0.00000 -0.00000
										}
									}
								}
								JOINT LThumb
								{
									OFFSET 0 0 0
									CHANNELS 3 Zrotation Yrotation Xrotation
									End Site
									{
										OFFSET 0.59938 -0.00000 0.59938
									}
								}
							}
						}
					}
				}
				JOINT RightShoulder
				{
					OFFSET 0 0 0
					CHANNELS 3 Zrotation Yrotation Xrotation
					JOINT RightArm
					{
						OFFSET -3.30990 0.84213 -0.36430
						CHANNELS 3 Zrotation Yrotation Xrotation
						JOINT RightForeArm
						{
							OFFSET -5.10161 -0.00000 -0.00000
							CHANNELS 3 Zrotation Yrotation Xrotation
							JOINT RightHand
							{
								OFFSET -3.23267 -0.00000 -0.00000
								CHANNELS 3 Zrotation Yrotation Xrotation
								JOINT RightFingerBase
								{
									OFFSET 0 0 0
									CHANNELS 3 Zrotation Yrotation Xrotation
									JOINT RightHandIndex1
									{
										OFFSET -0.70200 -0.00000 -0.00000
										CHANNELS 3 Zrotation Yrotation Xrotation
										End Site
										{
											OFFSET -0.56597 -0.00000 -0.00000
										}
									}
								}
								JOINT RThumb
								{
									OFFSET 0 0 0
									CHANNELS 3 Zrotation Yrotation Xrotation
									End Site
									{
										OFFSET -0.57461 -0.00000 0.57461
									}
								}
							}
						}
					}
				}
			}
		}
	}
}
MOTION
Frames: 14
Frame Time: .0083333
-34.9624 15.2098 -0.9924 -186.3950 53.0049 -181.6030 0.0000 0.0000 0.0000 -20.2592 -11.7810 -18.5055 5.8722 14.3033 44.4665 0.1133 -18.7482 -14.1692 0.3160 3.6134 9.9915 0.0000 0.0000 0.0000 15.4396 -5.0458 -18.1524 -11.9255 -18.3590 65.7524 0.1409 -11.8795 -14.8093 -2.7287 10.2424 -29.7653 -5.5400 4.8945 11.9573 -2.2108 6.1292 4.4087 -0.0711 3.1762 -2.3578 -30.2108 -15.9314 14.8610 36.6898 -24.9512 -11.9662 15.8233 -13.8366 3.5112 -0.0000 -0.0000 0.0000 64.9202 -64.4743 -93.9217 71.2713 -58.6322 -43.8550 -0.0000 0.0000 -27.9767 23.4016 22.5337 9.4168 -7.1250 0.0000 -0.0000 -5.8928 54.2111 -1.3375 -0.0000 -0.0000 0.0000 -111.9057 82.6707 -149.1593 -81.5103 59.7259 -52.6544 0.0000 -0.0000 -3.8644 -81.7643 47.9633 -78.9726 7.1250 -0.0000 -0.0000 -16.2857 51.1040 -23.1142
-34.9616 15.2030 -0.9765 -186.6490 52.6984 -181.5500 0.0000 0.0000 0.0000 -20.3926 -11.8408 -19.0663 5.9847 14.4135 44.9203 0.3147 -18.0507 -15.4142 0.0099 0.6432 1.7674 0.0000 0.0000 0.0000 15.7879 -4.9849 -18.1201 -11.8712 -18.3357 65.5800 0.2420 -12.6796 -14.4872 -2.7429 10.2667 -29.8449 -5.6898 5.0199 12.0587 -2.2229 6.2746 4.4201 -0.0333 3.2502 -2.4197 -30.2323 -16.2468 14.7817 36.6529 -25.4641 -11.6174 15.6278 -14.0805 3.7869 -0.0000 0.0000 0.0000 63.2556 -64.9478 -92.4887 72.9896 -58.8779 -45.3241 -0.0000 0.0000 -28.2748 23.8328 22.7338 9.6875 -7.1250 0.0000 -0.0000 -5.5122 54.5062 -1.2904 -0.0000 0.0000 0.0000 -116.5905 83.0215 -153.7094 -81.9616 59.7544 -53.0442 0.0000 -0.0000 -3.6109 -81.3488 47.8783 -78.4077 7.1250 -0.0000 -0.0000 -16.1817 50.7267 -22.9853
-34.9616 15.1979 -0.9612 -186.9250 52.2856 -181.5780 0.0000 0.0000 0.0000 -20.6053 -12.1406 -19.5540 6.1032 14.5276 45.3944 0.6339 -16.8052 -17.3099 0.3733 -3.9242 -10.8636 0.0000 0.0000 0.0000 16.0687 -5.0343 -18.0029 -11.7902 -18.3006 65.3223 0.3173 -13.5391 -14.7889 -2.7990 10.3624 -30.1584 -5.7885 5.0566 12.1501 -2.1771 6.3315 4.6071 0.0616 3.2800 -2.2891 -29.4803 -16.9557 14.8484 36.1462 -26.1788 -12.4528 15.1163 -14.4288 3.5571 0.0000 -0.0000 0.0000 61.7609 -65.3484 -91.4570 74.5419 -59.0776 -46.6543 -0.0000 0.0000 -28.2605 24.4414 22.8999 10.0292 -7.1250 0.0000 -0.0000 -4.9309 54.8035 -1.1895 0.0000 -0.0000 0.0000 -119.7433 83.1938 -156.3408 -82.6484 59.7948 -53.6377 0.0000 -0.0000 -3.7341 -80.9877 48.0662 -77.9647 7.1250 -0.0000 -0.0000 -15.8564 50.5190 -22.5257
-34.9598 15.2021 -0.9497 -187.0230 51.7068 -181.5020 0.0000 0.0000 0.0000 -20.7548 -12.5160 -19.8625 6.2108 14.6295 45.8219 0.9860 -15.4640 -19.4266 1.6751 -8.1538 -23.1823 0.0000 0.0000 0.0000 16.4106 -5.2650 -17.7873 -11.6678 -18.2467 64.9319 0.4024 -14.4388 -15.1011 -2.7793 10.3289 -30.0486 -5.5953 5.0383 12.3147 -2.2806 6.3404 4.7436 -0.1588 3.2917 -2.2031 -29.2363 -16.9623 14.8854 36.2288 -26.1484 -12.3831 15.1297 -14.4306 3.5432 0.0000 -0.0000 0.0000 60.7329 -65.8314 -90.5266 76.0099 -59.2474 -47.9148 -0.0000 0.0000 -28.0240 24.7602 23.1944 10.2957 -7.1250 0.0000 -0.0000 -4.6939 55.1795 -1.1751 0.0000 -0.0000 0.0000 -122.4061 83.5564 -158.6180 -83.5325 59.8414 -54.4019 0.0000 -0.0000 -3.8737 -81.0433 48.0198 -78.0294 7.1250 -0.0000 -0.0000 -15.9219 50.5426 -22.6192
-34.9580 15.2029 -0.9384 -187.2120 51.2210 -181.3840 0.0000 0.0000 0.0000 -20.8886 -12.9876 -20.1856 6.2983 14.7113 46.1674 1.0966 -15.0238 -20.0857 2.0462 -8.9616 -25.6753 0.0000 0.0000 0.0000 16.6561 -5.3684 -17.7040 -11.5461 -18.1921 64.5425 0.4696 -15.0934 -15.3021 -2.5731 9.9695 -28.8782 -5.6041 4.9834 12.3070 -2.3146 6.2812 4.8290 -0.1738 3.2643 -2.1034 -29.6963 -16.6919 14.8663 37.0875 -25.8113 -12.6380 15.6312 -14.3074 3.6247 -0.0000 0.0000 0.0000 58.8742 -66.1836 -89.0496 77.6231 -59.4132 -49.3024 -0.0000 0.0000 -28.2114 24.3360 23.5345 10.2369 -7.1250 0.0000 -0.0000 -5.2612 55.4507 -1.3523 -0.0000 0.0000 0.0000 -128.3936 83.8033 -164.1370 -84.1804 59.8716 -54.9623 0.0000 -0.0000 -3.7936 -81.3464 47.7102 -78.3744 7.1250 -0.0000 -0.0000 -16.3319 50.6482 -23.2071
-34.9591 15.1908 -0.9230 -187.4850 50.8730 -181.3230 0.0000 0.0000 0.0000 -20.9886 -13.4210 -20.5883 6.3724 14.7798 46.4587 0.9480 -15.5701 -19.1843 1.3686 -7.4041 -20.9182 0.0000 0.0000 0.0000 16.8330 -5.2667 -17.6839 -11.4415 -18.1445 64.2073 0.4915 -15.6005 -16.0052 -2.3858 9.6272 -27.7778 -5.6532 5.0022 12.3426 -2.4035 6.3102 4.8918 -0.2428 3.2823 -2.0517 -29.8668 -16.5454 15.2013 38.0132 -25.4136 -14.2079 16.2267 -14.2031 3.2399 -0.0000 -0.0000 0.0000 57.1777 -66.5847 -87.7273 79.3363 -59.5659 -50.7785 -0.0000 0.0000 -28.5413 24.8947 23.7472 10.5855 -7.1250 0.0000 -0.0000 -4.7418 55.7914 -1.2576 -0.0000 -0.0000 0.0000 -135.8584 84.0576 -171.3518 -84.4975 59.8853 -55.2365 0.0000 -0.0000 -3.6334 -81.4299 47.8096 -78.5029 7.1250 -0.0000 -0.0000 -16.2791 50.7618 -23.1242
-34.9599 15.1770 -0.9048 -187.6040 50.5503 -181.1300 0.0000 0.0000 0.0000 -20.9514 -13.7961 -21.0541 6.4453 14.8464 46.7436 0.8334 -16.0069 -18.4941 0.9685 -6.2656 -17.5569 0.0000 0.0000 0.0000 17.0969 -5.0713 -17.6899 -11.3417 -18.0983 63.8862 0.5068 -16.1569 -16.9133 -2.3617 9.5820 -27.6335 -5.6548 5.0790 12.3385 -2.3678 6.4338 5.0450 -0.2140 3.3447 -1.8968 -29.8605 -16.4380 15.3176 38.4125 -25.1221 -14.9914 16.5180 -14.1009 2.9994 0.0000 0.0000 0.0000 55.7120 -67.0246 -86.6157 80.9274 -59.6867 -52.1512 -0.0000 0.0000 -28.1490 26.9658 23.7292 11.5707 -7.1250 0.0000 -0.0000 -2.5033 56.2148 -0.6888 0.0000 0.0000 0.0000 -143.0538 84.1932 -178.2946 -84.8834 59.9008 -55.5704 0.0000 -0.0000 -3.4341 -81.5060 48.0282 -78.6420 7.1250 -0.0000 -0.0000 -16.1143 50.9223 -22.8769
-34.9604 15.1642 -0.8862 -187.6740 50.1238 -180.9170 0.0000 0.0000 0.0000 -20.9004 -14.3109 -21.4556 6.5195 14.9135 47.0326 0.8609 -15.9400 -18.6745 1.0522 -6.5227 -18.3087 0.0000 0.0000 0.0000 17.3704 -4.9387 -17.7107 -11.2494 -18.0550 63.5889 0.5376 -16.7747 -17.7114 -2.3839 9.6237 -27.7666 -5.6832 5.0934 12.3295 -2.2258 6.4768 5.2439 -0.0452 3.3645 -1.7035 -30.0015 -16.4699 15.3495 38.6787 -25.0923 -15.6131 16.6727 -14.1073 2.8972 -0.0000 -0.0000 0.0000 53.8267 -67.4590 -85.2704 82.5441 -59.7889 -53.5476 -0.0000 0.0000 -27.6038 28.0818 23.8606 12.1790 -7.1250 0.0000 -0.0000 -1.3223 56.6010 -0.3761 -0.0000 -0.0000 0.0000 -151.1708 84.0075 173.8039 -85.3280 59.9174 -55.9550 0.0000 -0.0000 -3.1806 -81.7444 48.2967 -79.0023 7.1250 -0.0000 -0.0000 -15.9710 51.2346 -22.6522
-34.9581 15.1505 -0.8667 -187.6060 49.7312 -180.7620 0.0000 0.0000 0.0000 -20.7712 -14.6934 -21.6924 6.5828 14.9703 47.2783 0.8949 -15.8725 -18.9017 1.2153 -6.9929 -19.6945 0.0000 0.0000 0.0000 17.7270 -4.7729 -17.5537 -11.1654 -18.0151 63.3176 0.5668 -17.3617 -18.4792 -2.3441 9.5488 -27.5275 -5.6188 5.1257 12.5385 -2.0983 6.5369 5.4162 0.0326 3.3971 -1.6450 -29.8070 -16.6948 15.4799 38.6550 -25.3050 -16.1462 16.5921 -14.2331 2.7689 -0.0000 0.0000 0.0000 51.7920 -68.0764 -83.8450 84.5319 -59.8867 -55.2663 -0.0000 0.0000 -27.6625 28.0784 24.1258 12.3008 -7.1250 0.0000 -0.0000 -1.4066 56.8869 -0.4098 -0.0000 0.0000 0.0000 -158.1710 83.7760 167.0541 -85.6210 59.9274 -56.2086 0.0000 -0.0000 -3.0589 -81.7198 48.9165 -79.0721 7.1250 -0.0000 -0.0000 -15.3851 51.4833 -21.7938
-34.9535 15.1353 -0.8453 -187.6270 49.3381 -180.7130 0.0000 0.0000 0.0000 -20.6924 -14.9999 -21.8945 6.6315 15.0136 47.4665 0.8388 -16.1300 -18.5821 1.1899 -6.9220 -19.4845 0.0000 0.0000 0.0000 17.9918 -4.6647 -17.4339 -11.1123 -17.9896 63.1456 0.5923 -17.8512 -19.1118 -2.3065 9.4772 -27.2999 -5.6307 5.1805 12.8193 -1.9818 6.6124 5.5708 0.1296 3.4383 -1.6503 -29.6681 -16.9525 15.4180 38.4526 -25.6469 -16.1243 16.3618 -14.3896 2.8318 -0.0000 0.0000 0.0000 50.0150 -68.9784 -82.9113 86.6088 -59.9565 -57.0635 -0.0000 0.0000 -27.6665 27.2016 24.4277 11.9995 -7.1250 0.0000 -0.0000 -2.4715 57.0154 -0.7279 -0.0000 0.0000 0.0000 -164.0579 83.7377 161.6779 -86.0475 59.9409 -56.5777 0.0000 -0.0000 -3.0151 -81.6411 49.2909 -79.0300 7.1250 -0.0000 -0.0000 -15.0015 51.5808 -21.2367
-34.9547 15.1111 -0.8233 -187.9760 48.8125 -180.7950 0.0000 0.0000 0.0000 -20.7765 -15.6752 -22.1362 6.6690 15.0467 47.6111 0.6406 -17.0500 -17.4736 0.6768 -5.2603 -14.6526 0.0000 0.0000 0.0000 17.9568 -4.6851 -17.5706 -11.1034 -17.9853 63.1170 0.6333 -18.3359 -19.5448 -2.3345 9.5305 -27.4695 -5.8993 5.2188 13.0136 -1.8424 6.6365 5.6855 0.4032 3.4492 -1.6774 -29.8850 -17.0872 15.2369 38.5074 -25.9072 -15.8807 16.2855 -14.5015 3.0595 0.0000 -0.0000 0.0000 48.1030 -70.0955 -81.8462 88.4929 -59.9914 -58.6948 -0.0000 0.0000 -26.9584 27.0773 24.6067 12.0171 -7.1250 0.0000 -0.0000 -2.6690 57.1791 -0.7967 0.0000 -0.0000 0.0000 -170.7536 83.7279 155.6908 -86.6954 59.9587 -57.1385 0.0000 -0.0000 -2.5832 -82.0843 48.7173 -79.5173 7.1250 -0.0000 -0.0000 -15.7234 51.6896 -22.2690
-34.9594 15.0900 -0.8010 -188.2170 48.3747 -180.7820 0.0000 0.0000 0.0000 -20.7889 -16.3910 -22.3817 6.7026 15.0762 47.7403 0.5083 -17.6774 -16.7548 0.2974 -3.5064 -9.6919 0.0000 0.0000 0.0000 17.9619 -4.6015 -17.7269 -11.1288 -17.9976 63.1993 0.6461 -18.6547 -20.0171 -2.3208 9.5046 -27.3870 -6.0888 5.2891 13.2055 -1.6763 6.7078 5.7814 0.6530 3.4832 -1.7211 -29.6641 -17.2535 15.4317 38.4774 -26.0643 -16.2724 16.2271 -14.6079 2.9326 -0.0000 -0.0000 0.0000 45.2702 -71.1291 -79.4458 90.5956 -59.9987 -60.5158 -0.0000 0.0000 -26.2390 28.6677 24.6004 12.8224 -7.1250 0.0000 -0.0000 -0.8961 57.5334 -0.2750 -0.0000 -0.0000 0.0000 -178.2762 83.4860 148.7837 -87.4125 59.9747 -57.7594 0.0000 -0.0000 -1.7112 -82.7323 47.0112 -80.1102 7.1250 -0.0000 -0.0000 -17.5931 51.4892 -24.9824
-34.9576 15.0833 -0.7775 -188.2920 48.1550 -180.6530 0.0000 0.0000 0.0000 -20.7525 -16.6361 -22.7558 6.7438 15.1123 47.8985 0.6047 -17.2237 -17.2785 0.4308 -4.2119 -11.6737 0.0000 0.0000 0.0000 18.0969 -4.3079 -17.8180 -11.1592 -18.0121 63.2976 0.6388 -18.8327 -20.4556 -2.3088 9.4816 -27.3137 -6.0253 5.3979 13.3891 -1.6576 6.8672 5.9109 0.6017 3.5674 -1.6862 -28.9219 -17.5819 15.6206 38.1659 -26.3094 -16.7409 15.9684 -14.7545 2.6695 0.0000 -0.0000 0.0000 41.6950 -71.3111 -76.1753 93.2211 -59.9608 -62.7891 -0.0000 0.0000 -26.5280 29.0895 24.9656 13.2149 -7.1250 0.0000 -0.0000 -0.5333 58.0268 -0.1700 0.0000 -0.0000 0.0000 175.6917 83.3494 143.2297 -88.2852 59.9889 -58.5150 0.0000 -0.0000 -1.2130 -83.0116 45.3916 -80.2306 7.1250 -0.0000 -0.0000 -19.1870 51.0093 -27.3364
-34.9531 15.0697 -0.7556 -188.5060 47.9374 -180.6050 0.0000 0.0000 0.0000 -20.7600 -16.7666 -23.2068 6.7854 15.1485 48.0581 0.5331 -17.5488 -16.8826 0.2888 -3.4557 -9.5502 0.0000 0.0000 0.0000 18.1007 -4.0726 -18.0135 -11.2141 -18.0382 63.4748 0.6171 -18.8976 -20.8385 -2.3264 9.5151 -27.4204 -6.1464 5.5117 13.4968 -1.5806 7.0222 6.0827 0.7215 3.6451 -1.5920 -28.7715 -17.7760 15.5274 38.1747 -26.4863 -16.9882 15.8831 -14.8428 2.6538 0.0000 -0.0000 0.0000 38.5582 -71.9047 -73.6222 95.6081 -59.8808 -64.8548 -0.0000 0.0000 -26.3585 28.9402 25.4294 13.3566 -7.1250 0.0000 -0.0000 -0.8515 58.4934 -0.2810 0.0000 -0.0000 0.0000 171.2831 83.9274 140.1626 -89.7664 59.9998 -59.7977 0.0000 -0.0000 -1.5889 -82.7756 44.8598 -79.8122 7.1250 -0.0000 -0.0000 -19.5303 50.5541 -27.8727
